<svg width="48" height="48" viewBox="0 0 48 48" fill="none" xmlns="http://www.w3.org/2000/svg">
<path fill-rule="evenodd" clip-rule="evenodd" d="M14.8445 39.6406C15.6885 39.6406 16.3745 40.3266 16.3745 41.1706C16.3745 42.0146 15.6885 42.6986 14.8445 42.6986C14.0005 42.6986 13.3165 42.0146 13.3165 41.1706C13.3165 40.3266 14.0005 39.6406 14.8445 39.6406Z" stroke="#008ECC" stroke-width="1.5" stroke-linecap="round" stroke-linejoin="round"/>
<path fill-rule="evenodd" clip-rule="evenodd" d="M37.3493 39.6406C38.1933 39.6406 38.8793 40.3266 38.8793 41.1706C38.8793 42.0146 38.1933 42.6986 37.3493 42.6986C36.5053 42.6986 35.8193 42.0146 35.8193 41.1706C35.8193 40.3266 36.5053 39.6406 37.3493 39.6406Z" stroke="#008ECC" stroke-width="1.5" stroke-linecap="round" stroke-linejoin="round"/>
<path d="M5.49976 6.5L9.65976 7.22L11.5858 30.166C11.7418 32.036 13.3038 33.472 15.1798 33.472H37.0038C38.7958 33.472 40.3158 32.156 40.5738 30.38L42.4718 17.264C42.7058 15.646 41.4518 14.198 39.8178 14.198H10.3278" stroke="#008ECC" stroke-width="1.5" stroke-linecap="round" stroke-linejoin="round"/>
<path d="M28.2507 21.59H33.7967" stroke="#008ECC" stroke-width="1.5" stroke-linecap="round" stroke-linejoin="round"/>
</svg>
